<?xml version="1.0" encoding="utf-8"?>
<!-- Generator: Adobe Illustrator 27.6.1, SVG Export Plug-In . SVG Version: 6.00 Build 0)  -->
<svg version="1.1" id="Calque_1" xmlns="http://www.w3.org/2000/svg" xmlns:xlink="http://www.w3.org/1999/xlink" x="0px" y="0px"
	 viewBox="0 0 1280 1024" style="enable-background:new 0 0 1280 1024;" xml:space="preserve">
<style type="text/css">
	.st0{fill:#0B254F;}
	.st1{fill:#4F6384;}
	.st2{font-family:'CrimsonText-BoldItalic';}
	.st3{font-size:72px;}
	.st4{fill:none;stroke:#1B1464;stroke-miterlimit:10;}
	.st5{fill:none;stroke:url(#SVGID_1_);stroke-miterlimit:10;}
</style>
<g>
	<path class="st0" d="M190.07,579.34c-53.46-5.54-119.02-22.61-151.32-69.46c-5.82-8.63-10.19-18.83-12.37-29.15
		c-2.5-10.8-3.01-23.5,1.43-34.24c15.63-38.6,71.11-43.34,106.94-44.89c44.84-1.39,89.66,3.05,134.03,7.45
		c38.87,3.93,77.57,9.35,115.23,20.64c16.76,4.97,34.43,11.56,50.76,17.58c17.32,6.39,35.33,11.93,53.43,15.5
		c32.41,5.9,65.78,8.02,98.64,6.61c46.74-1.94,92.63-14.96,139.72-18.07c23.88-1.7,47.82-1.58,71.54,0.15
		c23.6,1.93,47.29,4.72,70.56,9.09c23.3,4.24,46.34,9.74,68.97,16.45c0.26,0.08,0.42,0.36,0.34,0.62
		c-46.02-8.08-93.45-14.98-140.35-15.48c-29.18-0.37-58.24,1.06-86.94,5.71c-23.16,3.44-46.05,8.92-69.09,13.41
		c-17.38,3.44-35.8,6.19-53.51,7.46c-4.97,0.5-12.97,0.85-18.07,0.98c-5,0.28-12.93,0.32-18.08,0.21
		c-8.4,0.07-18.69-0.45-27.07-0.96c-2.84-0.13-6.27-0.34-9.02-0.66c-5.53-0.61-12.68-1.12-18.06-1.94
		c-11.95-1.69-24.29-3.79-35.92-6.83c-16.71-4.03-35.15-10.59-51.47-16.18c-22.56-7.9-45.3-14.07-68.64-18.68
		c-10.44-1.8-21.51-3.8-32.03-5.05c-22.67-3.13-46.78-4.83-69.66-6.75c-44.42-3.07-145.66-12.7-179.44,15.15
		c-8.2,7.01-8.93,16.3-6.31,26.7c2.48,11.8,8.72,21.75,17.7,30.74c31.11,29.83,78.91,41.19,121,46.19
		C211.24,554.42,208.35,580.49,190.07,579.34L190.07,579.34z"/>
</g>
<g>
	<path class="st0" d="M1058.44,419.7c41.46,6.15,82.63,28.43,103.17,66.02c11.05,20.57,20.26,46.58,15.22,70.06
		c-7.91,34.26-47.35,41.98-77.11,34.52c-12.84-3.04-24.93-8.36-35.93-15.19c-0.51-0.38-0.1-1.13,0.49-0.87
		c22.24,11.19,49.25,16.84,73.08,8.97c35.59-12.3,31.59-44.06,17.69-72.24c-12.99-27.69-36.01-46.96-65.03-56.15
		c-11.06-3.59-22.94-5.91-34.46-6.52c-7.94-0.4-14.04-7.16-13.64-15.1C1042.29,424.75,1050.1,418.39,1058.44,419.7L1058.44,419.7z"
		/>
</g>
<g>
	<path class="st0" d="M503.31,402.96c-109.59-33.92-227.93-67.02-343.05-49.38c-23.25,3.74-45.76,9.93-67.35,18.83
		c-8.7,3.71-17.76,8-26.66,11.96c-4.9,2.19-9.69,4.23-14.97,6.1c-6.13,2.12-13.12,4.01-19.9,1.53c-1.3-0.47-3.13-1.3-4.96-2.7
		c-1.84-1.36-3.82-3.62-4.99-5.9c-2.71-5.16-2.52-9.77-1.22-14.62c2.69-8.33,8.65-14.84,14.14-21.15
		c61.79-64.3,152.13-113.4,239.06-132.59c79.91-18.03,163.65-9.71,241.86,12.03c29.02,8.02,58.33,16.07,86.38,27.1
		c14.25,5.52,28.36,12.26,41.8,19.54c16.88,9.24,33.95,20.12,51.29,28.41c17.06,8.34,35.19,15.15,53.33,20.82
		c10.67,3.47,24.03,7.07,34.88,9.93c6.6,1.51,14.53,3.42,21.18,4.84c0,0,14.21,2.69,14.21,2.69l3.55,0.67
		c27.69,4.65,55.19,6.68,83.54,8.34c15.07,0.93,33.67,2.55,48.65,4.55c0,0,3.75,0.59,3.75,0.59l7.49,1.18
		c2.49,0.42,5,0.73,7.47,1.24c6.36,1.37,15.76,2.99,22.22,4.73c0,0,14.67,3.67,14.67,3.67l14.46,4.31l7.21,2.18l7.1,2.47
		c49.62,17.97,117.03,40.26,151.52,81.05c19.22,22.64,25.27,51.7,16.26,80.12c-9.05,28.84-28.75,53.08-50.37,73.35
		c0,0-0.7-0.71-0.7-0.71c25.69-27.57,50.8-63.12,47.55-102.49c-6.35-59.01-78.95-84.16-127.44-101.6
		c-18.03-6.14-37.48-12.74-55.97-17.63c0,0-14.07-3.69-14.07-3.69l-14.19-3.05c-4.71-1.12-9.49-1.8-14.25-2.62l-7.14-1.2
		c-2.38-0.41-4.79-0.62-7.18-0.95c-46.32-6.12-93.84-3.24-140.48-9.97c-4.46-0.48-17.72-2.8-22.47-3.55
		c-7.04-1.33-15.18-3.08-22.27-4.53c-11.4-2.7-25.41-6.13-36.61-9.46c-22.02-6.25-43.85-14.19-64.41-24.27
		c-15.2-7.43-31.04-16.81-45.99-24.65c-21.14-11.04-43.19-19.44-66.21-26.57c-75.66-22.51-155.18-41.12-234.32-32.59
		c-54.51,5.17-107.41,22.3-155.83,47.69c-41.57,22.04-81.93,49.25-114.25,83.43c-1.48,1.64-2.88,3.28-4.15,4.85
		c-0.63,0.78-1.22,1.55-1.73,2.25c-0.5,0.69-0.95,1.37-1.18,1.76c-0.13,0.2-0.17,0.31-0.12,0.2l0.07-0.15l0.12-0.31
		c3.14-9.07-4.31-19.49-13.75-19.89c-0.42-0.01-0.65-0.01-0.87-0.01c-0.85,0.04-0.9,0.09-0.86,0.07
		c17.7-5.57,36.43-16.51,57.81-23.29c24.57-8.3,50.28-13.31,76.07-15.53c75.65-6.43,152.22,9.8,223.19,34.39
		c18.71,6.62,37.42,13.88,55.63,21.77c18.26,7.87,36.19,16.4,53.83,25.47L503.31,402.96L503.31,402.96z"/>
</g>
<text transform="matrix(1 0 0 1 219.4102 585.7178)" class="st1 st2 st3">GARAGE  Vincent PARROT</text>
<path class="st4" d="M40.5,458.5"/>
<linearGradient id="SVGID_1_" gradientUnits="userSpaceOnUse" x1="1360.5" y1="970.5" x2="1360.5" y2="970.5">
	<stop  offset="0" style="stop-color:#090933"/>
	<stop  offset="0.2337" style="stop-color:#0C092A"/>
	<stop  offset="0.332" style="stop-color:#0D0924"/>
	<stop  offset="0.6371" style="stop-color:#003454"/>
	<stop  offset="0.9944" style="stop-color:#00304F"/>
</linearGradient>
<path class="st5" d="M1360.5,970.5"/>
<g id="Calque_2">
</g>
</svg>
